<?xml version="1.0" standalone="no"?><svg xmlns="http://www.w3.org/2000/svg" viewBox="0 0 1440 320"><path fill="#f3f4f5" fill-opacity="1" d="M0,128L30,128C60,128,120,128,180,128C240,128,300,128,360,138.7C420,149,480,171,540,197.3C600,224,660,256,720,256C780,256,840,224,900,224C960,224,1020,256,1080,256C1140,256,1200,224,1260,192C1320,160,1380,128,1410,112L1440,96L1440,320L1410,320C1380,320,1320,320,1260,320C1200,320,1140,320,1080,320C1020,320,960,320,900,320C840,320,780,320,720,320C660,320,600,320,540,320C480,320,420,320,360,320C300,320,240,320,180,320C120,320,60,320,30,320L0,320Z"></path></svg>